<svg width="102" height="20" viewBox="0 0 102 20" fill="none" xmlns="http://www.w3.org/2000/svg">
<path d="M12.425 15.675H5.475L4.325 19H0.65L6.925 1.525H11L17.275 19H13.575L12.425 15.675ZM11.475 12.875L8.95 5.575L6.425 12.875H11.475ZM23.1205 7.3C23.5705 6.56667 24.1538 5.99167 24.8705 5.575C25.6038 5.15833 26.4372 4.95 27.3705 4.95V8.625H26.4455C25.3455 8.625 24.5122 8.88333 23.9455 9.4C23.3955 9.91667 23.1205 10.8167 23.1205 12.1V19H19.6205V5.15H23.1205V7.3ZM28.8279 12.075C28.8279 10.6417 29.1196 9.39167 29.7029 8.325C30.2863 7.24167 31.0946 6.40833 32.1279 5.825C33.1613 5.225 34.3446 4.925 35.6779 4.925C37.3946 4.925 38.8113 5.35833 39.9279 6.225C41.0613 7.075 41.8196 8.275 42.2029 9.825H38.4279C38.2279 9.225 37.8863 8.75833 37.4029 8.425C36.9363 8.075 36.3529 7.9 35.6529 7.9C34.6529 7.9 33.8613 8.26667 33.2779 9C32.6946 9.71667 32.4029 10.7417 32.4029 12.075C32.4029 13.3917 32.6946 14.4167 33.2779 15.15C33.8613 15.8667 34.6529 16.225 35.6529 16.225C37.0696 16.225 37.9946 15.5917 38.4279 14.325H42.2029C41.8196 15.825 41.0613 17.0167 39.9279 17.9C38.7946 18.7833 37.3779 19.225 35.6779 19.225C34.3446 19.225 33.1613 18.9333 32.1279 18.35C31.0946 17.75 30.2863 16.9167 29.7029 15.85C29.1196 14.7667 28.8279 13.5083 28.8279 12.075ZM55.467 15.675H48.517L47.367 19H43.692L49.967 1.525H54.042L60.317 19H56.617L55.467 15.675ZM54.517 12.875L51.992 5.575L49.467 12.875H54.517ZM66.1625 7.3C66.6125 6.56667 67.1958 5.99167 67.9125 5.575C68.6458 5.15833 69.4792 4.95 70.4125 4.95V8.625H69.4875C68.3875 8.625 67.5542 8.88333 66.9875 9.4C66.4375 9.91667 66.1625 10.8167 66.1625 12.1V19H62.6625V5.15H66.1625V7.3ZM71.8699 12.075C71.8699 10.6417 72.1616 9.39167 72.7449 8.325C73.3283 7.24167 74.1366 6.40833 75.1699 5.825C76.2033 5.225 77.3866 4.925 78.7199 4.925C80.4366 4.925 81.8533 5.35833 82.9699 6.225C84.1033 7.075 84.8616 8.275 85.2449 9.825H81.4699C81.2699 9.225 80.9283 8.75833 80.4449 8.425C79.9783 8.075 79.3949 7.9 78.6949 7.9C77.6949 7.9 76.9033 8.26667 76.3199 9C75.7366 9.71667 75.4449 10.7417 75.4449 12.075C75.4449 13.3917 75.7366 14.4167 76.3199 15.15C76.9033 15.8667 77.6949 16.225 78.6949 16.225C80.1116 16.225 81.0366 15.5917 81.4699 14.325H85.2449C84.8616 15.825 84.1033 17.0167 82.9699 17.9C81.8366 18.7833 80.4199 19.225 78.7199 19.225C77.3866 19.225 76.2033 18.9333 75.1699 18.35C74.1366 17.75 73.3283 16.9167 72.7449 15.85C72.1616 14.7667 71.8699 13.5083 71.8699 12.075ZM95.609 4.95C96.659 4.95 97.5923 5.18333 98.409 5.65C99.2257 6.1 99.859 6.775 100.309 7.675C100.776 8.55833 101.009 9.625 101.009 10.875V19H97.509V11.35C97.509 10.25 97.234 9.40833 96.684 8.825C96.134 8.225 95.384 7.925 94.434 7.925C93.4673 7.925 92.7007 8.225 92.134 8.825C91.584 9.40833 91.309 10.25 91.309 11.35V19H87.809V0.5H91.309V6.875C91.759 6.275 92.359 5.80833 93.109 5.475C93.859 5.125 94.6923 4.95 95.609 4.95Z" fill="black"/>
</svg>
