<svg width="19" height="19" viewBox="0 0 19 19" fill="none" xmlns="http://www.w3.org/2000/svg">
<path d="M1.0409 15.9393C0.455116 16.5251 0.455116 17.4749 1.0409 18.0607C1.62669 18.6464 2.57644 18.6464 3.16222 18.0607L1.0409 15.9393ZM18.4508 2.15076C18.4508 1.32233 17.7792 0.650758 16.9508 0.650758L3.45081 0.650758C2.62238 0.650758 1.9508 1.32233 1.9508 2.15076C1.9508 2.97919 2.62238 3.65076 3.45081 3.65076H15.4508V15.6508C15.4508 16.4792 16.1224 17.1508 16.9508 17.1508C17.7792 17.1508 18.4508 16.4792 18.4508 15.6508L18.4508 2.15076ZM3.16222 18.0607L18.0115 3.21142L15.8901 1.0901L1.0409 15.9393L3.16222 18.0607Z" fill="black"/>
</svg>
