<svg width="90" height="74" viewBox="0 0 90 74" fill="none" xmlns="http://www.w3.org/2000/svg">
<path d="M5 32C2.23858 32 0 34.2386 0 37C0 39.7614 2.23858 42 5 42V32ZM88.5355 40.5355C90.4882 38.5829 90.4882 35.4171 88.5355 33.4645L56.7157 1.64466C54.7631 -0.307961 51.5973 -0.307961 49.6447 1.64466C47.692 3.59728 47.692 6.76311 49.6447 8.71573L77.9289 37L49.6447 65.2843C47.692 67.2369 47.692 70.4027 49.6447 72.3553C51.5973 74.308 54.7631 74.308 56.7157 72.3553L88.5355 40.5355ZM5 42H85V32H5V42Z" fill="black"/>
</svg>
